<mxfile host="app.diagrams.net" modified="2024-01-09T18:51:40.723Z" agent="Mozilla/5.0 (Windows NT 10.0; Win64; x64) AppleWebKit/537.36 (KHTML, like Gecko) Chrome/118.0.0.0 YaBrowser/23.11.0.0 Safari/537.36" etag="yEXVM9T17e87xxiySXvf" version="22.1.17" type="github">
  <diagram name="Page-1" id="13e1069c-82ec-6db2-03f1-153e76fe0fe0">
    <mxGraphModel dx="1793" dy="989" grid="1" gridSize="10" guides="1" tooltips="1" connect="1" arrows="1" fold="1" page="1" pageScale="1" pageWidth="4681" pageHeight="3300" background="none" math="0" shadow="0">
      <root>
        <mxCell id="0" />
        <mxCell id="1" parent="0" />
        <mxCell id="7baba1c4bc27f4b0-2" value="облачный сервер" style="shape=umlLifeline;perimeter=lifelinePerimeter;whiteSpace=wrap;html=1;container=1;collapsible=0;recursiveResize=0;outlineConnect=0;rounded=1;shadow=0;comic=0;labelBackgroundColor=none;strokeWidth=1;fontFamily=Verdana;fontSize=12;align=center;" parent="1" vertex="1">
          <mxGeometry x="970" y="210" width="100" height="980" as="geometry" />
        </mxCell>
        <mxCell id="7baba1c4bc27f4b0-10" value="" style="html=1;points=[];perimeter=orthogonalPerimeter;rounded=0;shadow=0;comic=0;labelBackgroundColor=none;strokeWidth=1;fontFamily=Verdana;fontSize=12;align=center;" parent="7baba1c4bc27f4b0-2" vertex="1">
          <mxGeometry x="45" y="100" width="10" height="210" as="geometry" />
        </mxCell>
        <mxCell id="VPOBKuUm9-yfHus2Cp72-67" value="" style="html=1;points=[[0,0,0,0,5],[0,1,0,0,-5],[1,0,0,0,5],[1,1,0,0,-5]];perimeter=orthogonalPerimeter;outlineConnect=0;targetShapes=umlLifeline;portConstraint=eastwest;newEdgeStyle={&quot;curved&quot;:0,&quot;rounded&quot;:0};" vertex="1" parent="7baba1c4bc27f4b0-2">
          <mxGeometry x="45" y="630" width="10" height="160" as="geometry" />
        </mxCell>
        <mxCell id="VPOBKuUm9-yfHus2Cp72-74" value="" style="html=1;points=[[0,0,0,0,5],[0,1,0,0,-5],[1,0,0,0,5],[1,1,0,0,-5]];perimeter=orthogonalPerimeter;outlineConnect=0;targetShapes=umlLifeline;portConstraint=eastwest;newEdgeStyle={&quot;curved&quot;:0,&quot;rounded&quot;:0};" vertex="1" parent="7baba1c4bc27f4b0-2">
          <mxGeometry x="45" y="850" width="10" height="50" as="geometry" />
        </mxCell>
        <mxCell id="7baba1c4bc27f4b0-3" value="БД" style="shape=umlLifeline;perimeter=lifelinePerimeter;whiteSpace=wrap;html=1;container=1;collapsible=0;recursiveResize=0;outlineConnect=0;rounded=1;shadow=0;comic=0;labelBackgroundColor=none;strokeWidth=1;fontFamily=Verdana;fontSize=12;align=center;" parent="1" vertex="1">
          <mxGeometry x="1310" y="200" width="160" height="990" as="geometry" />
        </mxCell>
        <mxCell id="7baba1c4bc27f4b0-13" value="" style="html=1;points=[];perimeter=orthogonalPerimeter;rounded=0;shadow=0;comic=0;labelBackgroundColor=none;strokeWidth=1;fontFamily=Verdana;fontSize=12;align=center;" parent="7baba1c4bc27f4b0-3" vertex="1">
          <mxGeometry x="75" y="140" width="10" height="180" as="geometry" />
        </mxCell>
        <mxCell id="VPOBKuUm9-yfHus2Cp72-15" value="alt" style="shape=umlFrame;whiteSpace=wrap;html=1;pointerEvents=0;" vertex="1" parent="7baba1c4bc27f4b0-3">
          <mxGeometry x="-430" y="200" width="590" height="160" as="geometry" />
        </mxCell>
        <mxCell id="VPOBKuUm9-yfHus2Cp72-16" value="" style="line;strokeWidth=1;fillColor=none;align=left;verticalAlign=middle;spacingTop=-1;spacingLeft=3;spacingRight=3;rotatable=0;labelPosition=right;points=[];portConstraint=eastwest;strokeColor=inherit;dashed=1;" vertex="1" parent="7baba1c4bc27f4b0-3">
          <mxGeometry x="-430" y="276" width="590" height="8" as="geometry" />
        </mxCell>
        <mxCell id="VPOBKuUm9-yfHus2Cp72-20" value="[true]" style="text;html=1;align=center;verticalAlign=middle;resizable=0;points=[];autosize=1;strokeColor=none;fillColor=none;" vertex="1" parent="7baba1c4bc27f4b0-3">
          <mxGeometry x="-400" y="235" width="50" height="30" as="geometry" />
        </mxCell>
        <mxCell id="VPOBKuUm9-yfHus2Cp72-25" style="rounded=0;orthogonalLoop=1;jettySize=auto;html=1;dashed=1;" edge="1" parent="7baba1c4bc27f4b0-3">
          <mxGeometry relative="1" as="geometry">
            <mxPoint x="75" y="300" as="sourcePoint" />
            <mxPoint x="-290" y="300" as="targetPoint" />
          </mxGeometry>
        </mxCell>
        <mxCell id="VPOBKuUm9-yfHus2Cp72-51" value="" style="shape=umlDestroy;whiteSpace=wrap;html=1;strokeWidth=3;targetShapes=umlLifeline;" vertex="1" parent="7baba1c4bc27f4b0-3">
          <mxGeometry x="-305" y="320" width="30" height="30" as="geometry" />
        </mxCell>
        <mxCell id="VPOBKuUm9-yfHus2Cp72-68" value="" style="html=1;points=[[0,0,0,0,5],[0,1,0,0,-5],[1,0,0,0,5],[1,1,0,0,-5]];perimeter=orthogonalPerimeter;outlineConnect=0;targetShapes=umlLifeline;portConstraint=eastwest;newEdgeStyle={&quot;curved&quot;:0,&quot;rounded&quot;:0};" vertex="1" parent="7baba1c4bc27f4b0-3">
          <mxGeometry x="75" y="720" width="10" height="20" as="geometry" />
        </mxCell>
        <mxCell id="VPOBKuUm9-yfHus2Cp72-79" value="" style="html=1;points=[[0,0,0,0,5],[0,1,0,0,-5],[1,0,0,0,5],[1,1,0,0,-5]];perimeter=orthogonalPerimeter;outlineConnect=0;targetShapes=umlLifeline;portConstraint=eastwest;newEdgeStyle={&quot;curved&quot;:0,&quot;rounded&quot;:0};" vertex="1" parent="7baba1c4bc27f4b0-3">
          <mxGeometry x="75" y="790" width="10" height="80" as="geometry" />
        </mxCell>
        <mxCell id="7baba1c4bc27f4b0-8" value="Веб-браузер" style="shape=umlLifeline;perimeter=lifelinePerimeter;whiteSpace=wrap;html=1;container=1;collapsible=0;recursiveResize=0;outlineConnect=0;rounded=1;shadow=0;comic=0;labelBackgroundColor=none;strokeWidth=1;fontFamily=Verdana;fontSize=12;align=center;" parent="1" vertex="1">
          <mxGeometry x="610" y="180" width="100" height="1030" as="geometry" />
        </mxCell>
        <mxCell id="7baba1c4bc27f4b0-9" value="" style="html=1;points=[];perimeter=orthogonalPerimeter;rounded=0;shadow=0;comic=0;labelBackgroundColor=none;strokeWidth=1;fontFamily=Verdana;fontSize=12;align=center;" parent="7baba1c4bc27f4b0-8" vertex="1">
          <mxGeometry x="45" y="100" width="10" height="850" as="geometry" />
        </mxCell>
        <mxCell id="7baba1c4bc27f4b0-11" value="Запрос на создание задчи" style="html=1;verticalAlign=bottom;endArrow=block;entryX=0;entryY=0;labelBackgroundColor=none;fontFamily=Verdana;fontSize=12;edgeStyle=elbowEdgeStyle;elbow=vertical;" parent="1" source="7baba1c4bc27f4b0-9" target="7baba1c4bc27f4b0-10" edge="1">
          <mxGeometry relative="1" as="geometry">
            <mxPoint x="730" y="320" as="sourcePoint" />
          </mxGeometry>
        </mxCell>
        <mxCell id="VPOBKuUm9-yfHus2Cp72-17" style="edgeStyle=orthogonalEdgeStyle;rounded=0;orthogonalLoop=1;jettySize=auto;html=1;" edge="1" parent="1" source="7baba1c4bc27f4b0-10" target="7baba1c4bc27f4b0-13">
          <mxGeometry relative="1" as="geometry">
            <Array as="points">
              <mxPoint x="1320" y="340" />
              <mxPoint x="1320" y="340" />
            </Array>
          </mxGeometry>
        </mxCell>
        <mxCell id="VPOBKuUm9-yfHus2Cp72-19" value="проверка существования проекта и пользователя" style="text;html=1;align=center;verticalAlign=middle;resizable=0;points=[];autosize=1;strokeColor=none;fillColor=none;" vertex="1" parent="1">
          <mxGeometry x="1040" y="308" width="300" height="30" as="geometry" />
        </mxCell>
        <mxCell id="VPOBKuUm9-yfHus2Cp72-22" value="[else]" style="text;html=1;align=center;verticalAlign=middle;resizable=0;points=[];autosize=1;strokeColor=none;fillColor=none;" vertex="1" parent="1">
          <mxGeometry x="915" y="508" width="50" height="30" as="geometry" />
        </mxCell>
        <mxCell id="VPOBKuUm9-yfHus2Cp72-23" style="rounded=0;orthogonalLoop=1;jettySize=auto;html=1;entryX=0.5;entryY=0.538;entryDx=0;entryDy=0;entryPerimeter=0;dashed=1;" edge="1" parent="1" source="7baba1c4bc27f4b0-13" target="7baba1c4bc27f4b0-10">
          <mxGeometry relative="1" as="geometry" />
        </mxCell>
        <mxCell id="VPOBKuUm9-yfHus2Cp72-38" value="" style="html=1;points=[];perimeter=orthogonalPerimeter;rounded=0;shadow=0;comic=0;labelBackgroundColor=none;strokeWidth=1;fontFamily=Verdana;fontSize=12;align=center;" vertex="1" parent="1">
          <mxGeometry x="1385" y="630" width="10" height="160" as="geometry" />
        </mxCell>
        <mxCell id="VPOBKuUm9-yfHus2Cp72-39" value="alt" style="shape=umlFrame;whiteSpace=wrap;html=1;pointerEvents=0;" vertex="1" parent="1">
          <mxGeometry x="880" y="660" width="590" height="180" as="geometry" />
        </mxCell>
        <mxCell id="VPOBKuUm9-yfHus2Cp72-40" value="" style="line;strokeWidth=1;fillColor=none;align=left;verticalAlign=middle;spacingTop=-1;spacingLeft=3;spacingRight=3;rotatable=0;labelPosition=right;points=[];portConstraint=eastwest;strokeColor=inherit;dashed=1;" vertex="1" parent="1">
          <mxGeometry x="880" y="736" width="590" height="8" as="geometry" />
        </mxCell>
        <mxCell id="VPOBKuUm9-yfHus2Cp72-41" value="[true]" style="text;html=1;align=center;verticalAlign=middle;resizable=0;points=[];autosize=1;strokeColor=none;fillColor=none;" vertex="1" parent="1">
          <mxGeometry x="910" y="695" width="50" height="30" as="geometry" />
        </mxCell>
        <mxCell id="VPOBKuUm9-yfHus2Cp72-42" value="успешная проверка" style="text;html=1;align=center;verticalAlign=middle;resizable=0;points=[];autosize=1;strokeColor=none;fillColor=none;" vertex="1" parent="1">
          <mxGeometry x="1125" y="670" width="130" height="30" as="geometry" />
        </mxCell>
        <mxCell id="VPOBKuUm9-yfHus2Cp72-43" value="ошибка" style="text;html=1;align=center;verticalAlign=middle;resizable=0;points=[];autosize=1;strokeColor=none;fillColor=none;" vertex="1" parent="1">
          <mxGeometry x="1155" y="744" width="70" height="30" as="geometry" />
        </mxCell>
        <mxCell id="VPOBKuUm9-yfHus2Cp72-44" style="edgeStyle=orthogonalEdgeStyle;rounded=0;orthogonalLoop=1;jettySize=auto;html=1;" edge="1" parent="1">
          <mxGeometry relative="1" as="geometry">
            <mxPoint x="1025" y="630" as="sourcePoint" />
            <Array as="points">
              <mxPoint x="1320" y="630" />
              <mxPoint x="1320" y="630" />
            </Array>
            <mxPoint x="1385" y="630" as="targetPoint" />
          </mxGeometry>
        </mxCell>
        <mxCell id="VPOBKuUm9-yfHus2Cp72-50" value="проверка, является ли пользователь владельцем проекта" style="edgeLabel;html=1;align=center;verticalAlign=middle;resizable=0;points=[];" vertex="1" connectable="0" parent="VPOBKuUm9-yfHus2Cp72-44">
          <mxGeometry x="-0.29" y="2" relative="1" as="geometry">
            <mxPoint x="47" y="-8" as="offset" />
          </mxGeometry>
        </mxCell>
        <mxCell id="VPOBKuUm9-yfHus2Cp72-45" value="[else]" style="text;html=1;align=center;verticalAlign=middle;resizable=0;points=[];autosize=1;strokeColor=none;fillColor=none;" vertex="1" parent="1">
          <mxGeometry x="915" y="768" width="50" height="30" as="geometry" />
        </mxCell>
        <mxCell id="VPOBKuUm9-yfHus2Cp72-46" style="rounded=0;orthogonalLoop=1;jettySize=auto;html=1;dashed=1;entryX=0.947;entryY=0.605;entryDx=0;entryDy=0;entryPerimeter=0;" edge="1" parent="1" target="VPOBKuUm9-yfHus2Cp72-48">
          <mxGeometry relative="1" as="geometry">
            <mxPoint x="1030" y="700" as="targetPoint" />
            <mxPoint x="1385" y="700.0000000000001" as="sourcePoint" />
          </mxGeometry>
        </mxCell>
        <mxCell id="VPOBKuUm9-yfHus2Cp72-47" style="rounded=0;orthogonalLoop=1;jettySize=auto;html=1;entryX=0.904;entryY=0.905;entryDx=0;entryDy=0;entryPerimeter=0;dashed=1;" edge="1" parent="1" target="VPOBKuUm9-yfHus2Cp72-48">
          <mxGeometry relative="1" as="geometry">
            <mxPoint x="1025" y="768.0050000000001" as="targetPoint" />
            <mxPoint x="1385.55" y="768.0050000000001" as="sourcePoint" />
          </mxGeometry>
        </mxCell>
        <mxCell id="VPOBKuUm9-yfHus2Cp72-48" value="" style="html=1;points=[];perimeter=orthogonalPerimeter;rounded=0;shadow=0;comic=0;labelBackgroundColor=none;strokeWidth=1;fontFamily=Verdana;fontSize=12;align=center;" vertex="1" parent="1">
          <mxGeometry x="1015" y="560" width="10" height="230" as="geometry" />
        </mxCell>
        <mxCell id="VPOBKuUm9-yfHus2Cp72-24" value="успешная проверка" style="text;html=1;align=center;verticalAlign=middle;resizable=0;points=[];autosize=1;strokeColor=none;fillColor=none;" vertex="1" parent="1">
          <mxGeometry x="1120" y="400" width="130" height="30" as="geometry" />
        </mxCell>
        <mxCell id="VPOBKuUm9-yfHus2Cp72-27" value="ошибка" style="text;html=1;align=center;verticalAlign=middle;resizable=0;points=[];autosize=1;strokeColor=none;fillColor=none;" vertex="1" parent="1">
          <mxGeometry x="1150" y="476" width="70" height="30" as="geometry" />
        </mxCell>
        <mxCell id="VPOBKuUm9-yfHus2Cp72-53" value="" style="shape=umlDestroy;whiteSpace=wrap;html=1;strokeWidth=3;targetShapes=umlLifeline;" vertex="1" parent="1">
          <mxGeometry x="1005" y="798" width="30" height="30" as="geometry" />
        </mxCell>
        <mxCell id="VPOBKuUm9-yfHus2Cp72-88" value="" style="edgeStyle=orthogonalEdgeStyle;rounded=0;orthogonalLoop=1;jettySize=auto;html=1;" edge="1" parent="1" source="VPOBKuUm9-yfHus2Cp72-59" target="VPOBKuUm9-yfHus2Cp72-64">
          <mxGeometry relative="1" as="geometry" />
        </mxCell>
        <mxCell id="VPOBKuUm9-yfHus2Cp72-59" value="Actor" style="shape=umlActor;verticalLabelPosition=bottom;verticalAlign=top;html=1;" vertex="1" parent="1">
          <mxGeometry x="370" y="170" width="30" height="60" as="geometry" />
        </mxCell>
        <mxCell id="VPOBKuUm9-yfHus2Cp72-65" value="" style="edgeStyle=orthogonalEdgeStyle;rounded=0;orthogonalLoop=1;jettySize=auto;html=1;dashed=1;endArrow=none;endFill=0;" edge="1" parent="1" source="VPOBKuUm9-yfHus2Cp72-59" target="VPOBKuUm9-yfHus2Cp72-64">
          <mxGeometry relative="1" as="geometry">
            <mxPoint x="385" y="1290" as="targetPoint" />
            <mxPoint x="385" y="260" as="sourcePoint" />
          </mxGeometry>
        </mxCell>
        <mxCell id="VPOBKuUm9-yfHus2Cp72-85" style="rounded=0;orthogonalLoop=1;jettySize=auto;html=1;" edge="1" parent="1">
          <mxGeometry relative="1" as="geometry">
            <mxPoint x="390" y="280" as="sourcePoint" />
            <mxPoint x="659.5" y="280" as="targetPoint" />
            <Array as="points">
              <mxPoint x="540" y="280" />
            </Array>
          </mxGeometry>
        </mxCell>
        <mxCell id="VPOBKuUm9-yfHus2Cp72-64" value="" style="html=1;points=[];perimeter=orthogonalPerimeter;rounded=0;shadow=0;comic=0;labelBackgroundColor=none;strokeWidth=1;fontFamily=Verdana;fontSize=12;align=center;" vertex="1" parent="1">
          <mxGeometry x="380" y="280" width="10" height="880" as="geometry" />
        </mxCell>
        <mxCell id="VPOBKuUm9-yfHus2Cp72-69" style="rounded=0;orthogonalLoop=1;jettySize=auto;html=1;entryX=0;entryY=0;entryDx=0;entryDy=5;entryPerimeter=0;" edge="1" parent="1" source="VPOBKuUm9-yfHus2Cp72-67" target="VPOBKuUm9-yfHus2Cp72-68">
          <mxGeometry relative="1" as="geometry" />
        </mxCell>
        <mxCell id="VPOBKuUm9-yfHus2Cp72-70" value="Создание задачи в проекте" style="text;html=1;align=center;verticalAlign=middle;resizable=0;points=[];autosize=1;strokeColor=none;fillColor=none;" vertex="1" parent="1">
          <mxGeometry x="1100" y="900" width="180" height="30" as="geometry" />
        </mxCell>
        <mxCell id="VPOBKuUm9-yfHus2Cp72-76" style="rounded=0;orthogonalLoop=1;jettySize=auto;html=1;entryX=0;entryY=0;entryDx=0;entryDy=5;entryPerimeter=0;" edge="1" parent="1">
          <mxGeometry relative="1" as="geometry">
            <mxPoint x="1025" y="990" as="sourcePoint" />
            <mxPoint x="1385" y="990" as="targetPoint" />
          </mxGeometry>
        </mxCell>
        <mxCell id="VPOBKuUm9-yfHus2Cp72-77" value="Запрос id созданной задачи" style="text;html=1;align=center;verticalAlign=middle;resizable=0;points=[];autosize=1;strokeColor=none;fillColor=none;" vertex="1" parent="1">
          <mxGeometry x="1110" y="960" width="180" height="30" as="geometry" />
        </mxCell>
        <mxCell id="VPOBKuUm9-yfHus2Cp72-81" style="rounded=0;orthogonalLoop=1;jettySize=auto;html=1;entryX=1;entryY=0;entryDx=0;entryDy=5;entryPerimeter=0;dashed=1;" edge="1" parent="1" source="VPOBKuUm9-yfHus2Cp72-79" target="VPOBKuUm9-yfHus2Cp72-74">
          <mxGeometry relative="1" as="geometry" />
        </mxCell>
        <mxCell id="VPOBKuUm9-yfHus2Cp72-82" value="Ответ (id)" style="text;html=1;align=center;verticalAlign=middle;resizable=0;points=[];autosize=1;strokeColor=none;fillColor=none;" vertex="1" parent="1">
          <mxGeometry x="1140" y="1038" width="80" height="30" as="geometry" />
        </mxCell>
        <mxCell id="VPOBKuUm9-yfHus2Cp72-83" style="rounded=0;orthogonalLoop=1;jettySize=auto;html=1;dashed=1;" edge="1" parent="1" source="VPOBKuUm9-yfHus2Cp72-74" target="7baba1c4bc27f4b0-8">
          <mxGeometry relative="1" as="geometry" />
        </mxCell>
        <mxCell id="VPOBKuUm9-yfHus2Cp72-84" style="rounded=0;orthogonalLoop=1;jettySize=auto;html=1;dashed=1;" edge="1" parent="1">
          <mxGeometry relative="1" as="geometry">
            <mxPoint x="655" y="1120" as="sourcePoint" />
            <mxPoint x="390" y="1120" as="targetPoint" />
          </mxGeometry>
        </mxCell>
        <mxCell id="VPOBKuUm9-yfHus2Cp72-86" value="запрос" style="text;html=1;align=center;verticalAlign=middle;resizable=0;points=[];autosize=1;strokeColor=none;fillColor=none;" vertex="1" parent="1">
          <mxGeometry x="470" y="258" width="60" height="30" as="geometry" />
        </mxCell>
        <mxCell id="VPOBKuUm9-yfHus2Cp72-87" value="отображение запроса" style="text;html=1;align=center;verticalAlign=middle;resizable=0;points=[];autosize=1;strokeColor=none;fillColor=none;" vertex="1" parent="1">
          <mxGeometry x="425" y="1090" width="140" height="30" as="geometry" />
        </mxCell>
        <mxCell id="VPOBKuUm9-yfHus2Cp72-89" value="генерация вёрстки" style="text;html=1;align=center;verticalAlign=middle;resizable=0;points=[];autosize=1;strokeColor=none;fillColor=none;" vertex="1" parent="1">
          <mxGeometry x="770" y="1060" width="130" height="30" as="geometry" />
        </mxCell>
      </root>
    </mxGraphModel>
  </diagram>
</mxfile>
